<?xml version="1.0" standalone="no"?><svg xmlns="http://www.w3.org/2000/svg" viewBox="0 0 1440 320"><path fill="#4a4b4c" fill-opacity="1" d="M0,96L18.5,96C36.9,96,74,96,111,96C147.7,96,185,96,222,96C258.5,96,295,96,332,96C369.2,96,406,96,443,90.7C480,85,517,75,554,64C590.8,53,628,43,665,48C701.5,53,738,75,775,85.3C812.3,96,849,96,886,133.3C923.1,171,960,245,997,250.7C1033.8,256,1071,192,1108,181.3C1144.6,171,1182,213,1218,192C1255.4,171,1292,85,1329,74.7C1366.2,64,1403,128,1422,160L1440,192L1440,320L1421.5,320C1403.1,320,1366,320,1329,320C1292.3,320,1255,320,1218,320C1181.5,320,1145,320,1108,320C1070.8,320,1034,320,997,320C960,320,923,320,886,320C849.2,320,812,320,775,320C738.5,320,702,320,665,320C627.7,320,591,320,554,320C516.9,320,480,320,443,320C406.2,320,369,320,332,320C295.4,320,258,320,222,320C184.6,320,148,320,111,320C73.8,320,37,320,18,320L0,320Z"></path></svg>