<?xml version="1.0" standalone="no"?><svg xmlns="http://www.w3.org/2000/svg" viewBox="0 0 1440 320"><path fill="#4a4b4c" fill-opacity="1" d="M0,64L30,85.3C60,107,120,149,180,160C240,171,300,149,360,117.3C420,85,480,43,540,37.3C600,32,660,64,720,112C780,160,840,224,900,218.7C960,213,1020,139,1080,117.3C1140,96,1200,128,1260,138.7C1320,149,1380,139,1410,133.3L1440,128L1440,320L1410,320C1380,320,1320,320,1260,320C1200,320,1140,320,1080,320C1020,320,960,320,900,320C840,320,780,320,720,320C660,320,600,320,540,320C480,320,420,320,360,320C300,320,240,320,180,320C120,320,60,320,30,320L0,320Z"></path></svg>